<svg viewBox="49.99 76 150.01 97.98" id="Layer_1" xmlns="http://www.w3.org/2000/svg"><defs><style>.cls-1{fill:#001b72;}</style></defs><path d="M194.56,76H134.34a5.43,5.43,0,0,0-5.43,5.43v87.12a5.43,5.43,0,0,0,5.43,5.43h60.22a5.44,5.44,0,0,0,5.44-5.43V81.44A5.44,5.44,0,0,0,194.56,76ZM138.17,96.07h0c1.1-1,2.15-2.12,3-3a1.62,1.62,0,0,1,1.16-.61h0a1.6,1.6,0,0,1,1.15.6c1.19,1.27,2.42,2.5,3.63,3.72l.92.93,12.73-12.83L166,90.31l-18,17.88-6.85-7c-1-1-1.95-2-2.95-3a1.31,1.31,0,0,1,0-2.15Zm0,26.29h0c1.09-1,2.15-2.11,3-3a1.62,1.62,0,0,1,1.16-.61h0a1.6,1.6,0,0,1,1.15.6c1.19,1.26,2.41,2.49,3.62,3.71l.93.94,12.73-12.83L166,116.6l-18,17.88-6.86-7c-1-1-1.94-2-2.94-2.94a1.54,1.54,0,0,1-.57-1.09A1.5,1.5,0,0,1,138.17,122.36Zm3,31.41c-1-1-1.95-2-3-3a1.31,1.31,0,0,1,0-2.16c1.09-1,2.14-2.11,3-3a1.62,1.62,0,0,1,1.16-.61h0a1.61,1.61,0,0,1,1.15.61c1.2,1.26,2.43,2.5,3.65,3.73l.9.91,12.73-12.82L166,142.9l-18,17.87Zm50.16,2.47H161.67l8.49-8.44H191.3Zm0-26.29H161.67l8.49-8.44H191.3Zm0-26.29H161.67l8.49-8.45H191.3Z" class="cls-1"></path><path d="M65.62,97.83H54.47a3.66,3.66,0,0,0-3.54,2.72l-.81,3a3.66,3.66,0,0,0,.5,3H61.89Z" class="cls-1"></path><path d="M64.77,114a10.76,10.76,0,0,0-7.22,2.78l-2.26,2A11,11,0,0,0,51.65,127v41.89A4.13,4.13,0,0,0,55.79,173H70.86A4.13,4.13,0,0,0,75,168.89v-7.11H72.62a4.89,4.89,0,0,1-4.88-4.88h50.51V114Zm5.48,26.48c-2.92,0-5.31-3.18-5.31-7.06s2.39-7.07,5.31-7.07H83.93c2.92,0,5.31,3.18,5.31,7.07v7.06Z" class="cls-1"></path><path d="M118.07,77H90.7a12.34,12.34,0,0,0-10.52,5.88,1.28,1.28,0,0,0-.11.2l-9.31,21.79a1.21,1.21,0,0,0,1.11,1.69h9.92a1.21,1.21,0,0,0,1.13-.77l6.82-16.66a3.91,3.91,0,0,1,3.08-1.52h25.43V77Z" class="cls-1"></path></svg>