<svg xml:space="preserve" style="enable-background:new 0 0 1016 898;" viewBox="0 0 1016 898" y="0px" x="0px" xmlns:xlink="http://www.w3.org/1999/xlink" xmlns="http://www.w3.org/2000/svg" id="Layer_1" version="1.1">
<style type="text/css">
	.st0{fill:#001B72;}
</style>
<g transform="translate(0.000000,898.000000) scale(0.100000,-0.100000)">
	<path d="M4652.3,8225.4c-365-31-626-94-855-204c-295-142-463-336-548-633l-22-77l-3-2820c-2-2541-1-2828,14-2905
		c92-491,519-752,1354-826c261-23,944-15,1157,15c449,62,744,171,945,350c106,94,197,250,240,412l23,84l3,2790
		c3,2523,1,2799-13,2888c-86,523-495,815-1275,912C5514.3,8231.4,4827.3,8240.4,4652.3,8225.4z M4378.3,7524.4c40-40,44-103,9-173
		c-71-145-336-325-479-325c-42,0-98,30-113,60c-18,35-16,105,3,143c61,121,215,248,374,309c30,12,67,17,113,15
		C4342.3,7551.4,4356.3,7546.4,4378.3,7524.4z M6055.3,7518.4c140-65,276-184,326-286c26-54,25-117-3-160c-53-82-242-40-417,93
		c-123,93-189,189-189,275c0,42,5,53,35,83c35,35,36,36,109,31C5970.3,7550.4,6007.3,7541.4,6055.3,7518.4z M5627.3,6408.4
		c235-38,342-74,432-148c55-45,125-143,164-231c35-76,84-259,94-349l7-59l-291-430c-160-236-295-433-300-438c-4-4-62,0-127,10
		c-176,27-865,26-1037-1c-65-10-120-16-121-15c-2,2-135,200-297,439c-330,489-304,429-268,603c50,248,161,434,309,519
		c84,49,247,88,470,114c81,9,222,12,475,10C5442.3,6429.4,5517.3,6425.4,5627.3,6408.4z M4043.3,4756.4c95-146,185-294,200-330
		c47-112,51-155,47-555c-4-350-5-373-26-428c-40-109-86-181-162-258c-73-73-161-128-232-145l-28-6v1008c0,866,2,1006,14,994
		C3864.3,5028.4,3948.3,4902.4,4043.3,4756.4z M6332.3,4041.4c0-748-3-1005-11-1005c-7,0-46,16-88,36c-59,28-94,55-156,118
		c-88,89-130,159-167,276c-22,73-23,85-23,440c0,490-14,444,265,872c96,147,176,268,178,268
		C6331.3,5046.4,6332.3,4594.4,6332.3,4041.4z M5322.3,4252.4c101-53,149-159,119-263c-17-61-89-137-144-152c-22-6-119-11-215-11
		c-148,0-181,3-215,19c-152,70-182,265-55,373c23,20,58,41,78,47c21,5,118,9,217,8C5261.3,4271.4,5292.3,4268.4,5322.3,4252.4z
		 M3965.3,2614.4c117-121,388-207,742-238c156-13,617-13,770,1c247,21,455,69,591,136c120,58,200,140,242,249l19,48l5-35
		c3-19,5-268,4-554l-2-520l-23-48c-45-92-148-151-347-201c-259-65-429-81-869-81c-393,0-508,8-742,51c-287,52-426,118-486,229
		c-22,39-22,47-25,605l-2,565l40-81C3904.3,2695.4,3941.3,2638.4,3965.3,2614.4z" class="st0"></path>
	<path d="M1542.3,6335.4c-198-128-401-312-553-501c-328-408-483-887-464-1428c22-594,233-1063,668-1485
		c132-128,229-205,367-292l86-54l14,26c7,14,60,111,117,215l103,190l-53,30c-189,108-409,320-550,530c-322,481-361,1151-95,1676
		c132,260,342,494,596,664l102,68l-115,211c-63,116-118,211-122,211C1640.3,6396.4,1594.3,6369.4,1542.3,6335.4z" class="st0"></path>
	<path d="M8489.3,6354.4c-63-111-208-380-205-382c2-1,48-32,103-68c386-255,659-662,741-1103c27-142,27-488,0-630
		c-81-438-349-836-736-1097c-58-39-104-75-102-80c3-12,202-377,217-400c10-16,18-13,86,29c347,215,661,560,834,918
		c148,303,210,587,209,955c-1,518-153,955-469,1345c-99,122-301,318-423,408c-93,69-212,147-225,147
		C8515.3,6396.4,8502.3,6377.4,8489.3,6354.4z" class="st0"></path>
	<path d="M1962.3,5589.4c-47-32-135-107-196-168c-267-266-388-557-388-935c0-369,125-673,383-931c73-73,215-185,271-214
		l26-14l116,212c114,206,116,212,97,227c-182,136-262,225-328,363c-50,105-70,187-78,312c-18,319,128,588,425,781
		c5,3-226,418-235,421C2050.3,5645.4,2008.3,5620.4,1962.3,5589.4z" class="st0"></path>
	<path d="M8088.3,5624.4c-21-35-216-395-216-400c0-3,23-20,51-38c118-76,248-227,304-353c78-176,92-399,39-587
		c-48-167-180-345-337-452c-52-36-56-41-46-61c98-189,223-406,233-400c124,72,271,197,365,309c134,161,211,312,269,524
		c24,88,26,111,26,315c1,199-1,229-23,315c-72,289-227,533-455,720c-66,53-178,130-190,130
		C8105.3,5646.4,8096.3,5636.4,8088.3,5624.4z" class="st0"></path>
</g>
</svg>
